<svg width="200" height="200" viewBox="0 0 200 200" fill="none" xmlns="http://www.w3.org/2000/svg">
  <rect x="18" y="18" width="164" height="164" rx="40" fill="url(#bg)"/>
  <path d="M100 86C112 72 132 74 140 92C148 108 142 128 124 142C114 150 106 150 100 146C94 150 86 150 76 142C58 128 52 108 60 92C68 74 88 72 100 86Z" fill="white"/>
  <path d="M100 86C100 76 101 70 104 65" stroke="white" stroke-width="5" stroke-linecap="round"/>
  <path d="M104 76C108 62 120 58 124 60C116 66 108 72 104 76Z" fill="white" fill-opacity="0.72"/>
  <defs>
    <linearGradient id="bg" x1="28" y1="24" x2="176" y2="180" gradientUnits="userSpaceOnUse">
      <stop stop-color="#0F4C81"/>
      <stop offset="1" stop-color="#2563EB"/>
    </linearGradient>
  </defs>
</svg>
